<svg width="64" height="64" viewBox="0 0 64 64" fill="none" xmlns="http://www.w3.org/2000/svg">
  <path d="M32 2L58 16V48L32 62L6 48V16L32 2Z" fill="url(#g1)" stroke="url(#g2)" stroke-width="2"/>
  <circle cx="32" cy="32" r="6" fill="white" opacity="0.95"/>
  <circle cx="32" cy="32" r="3.5" fill="#326CE5"/>
  <line x1="38" y1="32" x2="51" y2="32" stroke="white" stroke-width="2.2" stroke-linecap="round" opacity="0.9"/>
  <circle cx="53" cy="32" r="3.2" fill="white" opacity="0.9"/>
  <line x1="34.93" y1="26.27" x2="43.34" y2="16.34" stroke="white" stroke-width="2.2" stroke-linecap="round" opacity="0.9"/>
  <circle cx="44.87" cy="14.53" r="3.2" fill="white" opacity="0.9"/>
  <line x1="29.07" y1="26.27" x2="20.66" y2="16.34" stroke="white" stroke-width="2.2" stroke-linecap="round" opacity="0.9"/>
  <circle cx="19.13" cy="14.53" r="3.2" fill="white" opacity="0.9"/>
  <line x1="26" y1="32" x2="13" y2="32" stroke="white" stroke-width="2.2" stroke-linecap="round" opacity="0.9"/>
  <circle cx="11" cy="32" r="3.2" fill="white" opacity="0.9"/>
  <line x1="29.07" y1="37.73" x2="20.66" y2="47.66" stroke="white" stroke-width="2.2" stroke-linecap="round" opacity="0.9"/>
  <circle cx="19.13" cy="49.47" r="3.2" fill="white" opacity="0.9"/>
  <line x1="34.93" y1="37.73" x2="43.34" y2="47.66" stroke="white" stroke-width="2.2" stroke-linecap="round" opacity="0.9"/>
  <circle cx="44.87" cy="49.47" r="3.2" fill="white" opacity="0.9"/>
  <line x1="32" y1="26" x2="32" y2="13" stroke="white" stroke-width="2.2" stroke-linecap="round" opacity="0.9"/>
  <circle cx="32" cy="11" r="3.2" fill="white" opacity="0.9"/>
  <defs>
    <linearGradient id="g1" x1="6" y1="2" x2="58" y2="62">
      <stop offset="0%" stop-color="#326CE5"/>
      <stop offset="100%" stop-color="#1A3F8B"/>
    </linearGradient>
    <linearGradient id="g2" x1="6" y1="2" x2="58" y2="62">
      <stop offset="0%" stop-color="#5B8DEF"/>
      <stop offset="100%" stop-color="#2855B8"/>
    </linearGradient>
  </defs>
</svg>
